<svg width="25" height="25" viewBox="0 0 25 25" fill="none" xmlns="http://www.w3.org/2000/svg">
<path d="M18.0662 13.6565C18.9974 13.6565 19.8169 13.1475 20.2391 12.3778L24.6842 4.32042C25.1436 3.50103 24.5476 2.483 23.604 2.483H5.22739L4.06023 0H0V2.483H2.48332L6.9533 11.906L5.27706 14.9352C4.37064 16.5989 5.56264 18.6225 7.44996 18.6225H22.3499V16.1395H7.44996L8.81579 13.6565H18.0662ZM6.40697 4.966H21.4931L18.0662 11.1735H9.3497L6.40697 4.966ZM7.44996 19.864C6.08414 19.864 4.97906 20.9813 4.97906 22.347C4.97906 23.7127 6.08414 24.83 7.44996 24.83C8.81579 24.83 9.93328 23.7127 9.93328 22.347C9.93328 20.9813 8.81579 19.864 7.44996 19.864ZM19.8666 19.864C18.5007 19.864 17.3957 20.9813 17.3957 22.347C17.3957 23.7127 18.5007 24.83 19.8666 24.83C21.2324 24.83 22.3499 23.7127 22.3499 22.347C22.3499 20.9813 21.2324 19.864 19.8666 19.864Z" fill="#F6EBEB"/>
</svg>
