<?xml version="1.0" encoding="UTF-8" standalone="no"?><!DOCTYPE svg PUBLIC "-//W3C//DTD SVG 1.1//EN" "http://www.w3.org/Graphics/SVG/1.1/DTD/svg11.dtd"><svg width="100%" height="100%" viewBox="0 0 2134 2134" version="1.1" xmlns="http://www.w3.org/2000/svg" xmlns:xlink="http://www.w3.org/1999/xlink" xml:space="preserve" xmlns:serif="http://www.serif.com/" style="fill-rule:evenodd;clip-rule:evenodd;stroke-linejoin:round;stroke-miterlimit:2;"><g id="Dark-Circle" serif:id="Dark Circle"><circle cx="1066.67" cy="1066.67" r="1066.67" style="fill:#0c0c0e;"/><path d="M1066.65,979.019l-259.749,350.107l-141.367,-162.392l401.116,-540.655l401.139,540.655l-141.377,162.399l-259.762,-350.114Zm0,648.511l-204.234,-234.625l204.234,-275.314l204.242,275.314l-204.242,234.625Zm936.155,-949.672l-33.999,-29.604c-15.606,-13.585 -39.263,-11.94 -52.839,3.657l-353.933,406.556l0,-128.284c0,-20.692 -16.764,-37.456 -37.449,-37.456l-45.125,0l-0,151.141l-412.81,-556.368l-412.765,556.346l-0,-113.663c-0,-20.692 -16.774,-37.456 -37.456,-37.456l-45.126,0l0,165.755l-353.924,-406.571c-13.577,-15.597 -37.235,-17.242 -52.839,-3.657l-34.008,29.604l429.13,492.979l-255.521,344.405l36.243,26.901c16.611,12.324 40.076,8.85 52.4,-7.769l178.519,-240.624l0,117.227c0,20.684 16.766,37.45 37.456,37.45l45.126,0l-0,-169.352l102.652,117.933l-87.716,118.234l36.236,26.892c16.613,12.333 40.076,8.859 52.402,-7.76l54.598,-73.584l254.612,292.92l254.587,-292.92l54.593,73.584c12.324,16.619 35.789,20.093 52.4,7.76l36.243,-26.892l-87.714,-118.234l102.682,-117.955l-0,131.924c-0,20.684 16.773,37.45 37.45,37.45l45.124,0l0,-154.661l178.512,240.616c12.338,16.611 35.796,20.085 52.408,7.761l36.251,-26.901l-255.537,-344.412l429.137,-492.972Z" style="fill:#f6ebeb;fill-rule:nonzero;"/></g></svg>