<?xml version="1.0" encoding="utf-8"?>
<!-- Generator: Adobe Illustrator 25.2.1, SVG Export Plug-In . SVG Version: 6.00 Build 0)  -->
<svg version="1.1" id="Layer_1" xmlns="http://www.w3.org/2000/svg" xmlns:xlink="http://www.w3.org/1999/xlink" x="0px" y="0px"
	 viewBox="0 0 2083.3 1650.7" style="enable-background:new 0 0 2083.3 1650.7;" xml:space="preserve">
<style type="text/css">
	.st0{fill:#F6EBEB;}
</style>
<path class="st0" d="M399.24,483.71l49.68,325.63h-38.86l-30.99-237.09l-30.99,237.09h-38.86l52.14-344.33h19.18
	c6.56,0,11.07,1.65,13.53,4.92C396.54,473.22,398.26,477.81,399.24,483.71z M660.44,694.24L627.48,478.3
	c-0.98-4.92-2.46-8.36-4.43-10.33c-1.97-1.97-3.94-2.95-5.9-2.95H590.1l49.19,320.23c2.62,16.07,9.67,24.1,21.15,24.1h17.7
	l52.63-344.33h-35.42L660.44,694.24z M919.66,809.34h25.09V478.79c0-3.61-1.23-6.8-3.69-9.59c-2.46-2.79-5.99-4.19-10.57-4.19
	h-21.15v336.95C910.32,806.88,913.76,809.34,919.66,809.34z M1165.61,809.34h25.09V478.79c0-3.61-1.23-6.8-3.69-9.59
	c-2.46-2.79-5.99-4.19-10.57-4.19h-21.15v336.95C1156.26,806.88,1159.71,809.34,1165.61,809.34z M1435.17,475.84
	c0-2.95-1.07-5.41-3.2-7.38c-2.14-1.97-4.67-3.11-7.62-3.44h-24.6v344.33h84.61c9.18,0,15.57-3.12,19.18-9.35l11.32-25.58h-79.69
	V475.84z M1724.39,483.71c-0.98-5.9-2.71-10.5-5.16-13.78c-2.46-3.27-6.97-4.92-13.53-4.92h-19.18l-52.14,344.33h38.86l30.99-237.09
	l30.99,237.09h38.86L1724.39,483.71z M1292.15,1034.72l-114.83,131.92l68.38,92.16l-9.7,7.2c-4.45,3.3-10.72,2.37-14.02-2.08
	l-47.77-64.38v41.39h-12.08c-5.54,0-10.02-4.49-10.02-10.02v-35.3l-27.48,31.56l23.47,31.64l-9.7,7.2
	c-4.45,3.3-10.72,2.37-14.02-2.08l-14.61-19.69l-68.13,78.26l-68.13-78.26l-14.61,19.69c-3.3,4.45-9.58,5.38-14.02,2.08l-9.7-7.2
	l23.47-31.64l-27.47-31.56v45.32h-12.08c-5.54,0-10.02-4.49-10.02-10.02v-31.37l-47.77,64.39c-3.3,4.45-9.58,5.38-14.02,2.08
	l-9.7-7.2l68.37-92.16l-114.83-131.92l9.1-7.92c4.17-3.63,10.51-3.2,14.14,0.98l94.71,108.79v-44.36h12.08
	c5.54,0,10.02,4.49,10.02,10.02v30.42l110.45-148.87l110.46,148.88v-40.44h12.08c5.54,0,10.02,4.49,10.02,10.02v34.33l94.71-108.79
	c3.63-4.17,9.96-4.61,14.14-0.98L1292.15,1034.72z M1096.3,1226.05l-54.65-73.67l-54.65,73.67l54.65,62.78L1096.3,1226.05z
	 M1148.98,1165.53l-107.34-144.67l-107.33,144.67l37.83,43.45l69.51-93.69l69.51,93.69L1148.98,1165.53z"/>
</svg>
